<?xml version="1.0" encoding="utf-8"?>
<!-- Generator: Adobe Illustrator 25.4.1, SVG Export Plug-In . SVG Version: 6.00 Build 0)  -->
<svg version="1.1" id="Capa_1" xmlns="http://www.w3.org/2000/svg" xmlns:xlink="http://www.w3.org/1999/xlink" x="0px" y="0px"
	 viewBox="0 0 2095.49 554.82" style="enable-background:new 0 0 2095.49 554.82;" xml:space="preserve">
<style type="text/css">
	.st0{fill:#FFFFFF;}
</style>
<g>
	<path class="st0" d="M412.9,74.98c33.12,23.08,58.18,52.58,74.82,88.66c30.83,66.84,33.77,134.81,2.19,202.03
		c-27.17,57.83-72.16,98.14-131.6,121.14c-79.52,30.78-155.16,18.41-227.44-23.6c-2.59-1.51-5.17-3.04-8.15-4.79
		c-30.21,31.99-60.15,63.7-91.03,96.4c-0.39-2.96-0.8-4.66-0.8-6.37c-0.05-26.28-0.2-52.56,0.12-78.83
		c0.04-3.42,1.73-7.65,4.1-10.08C160.04,331.87,285.12,204.36,410.2,76.85C410.76,76.28,411.54,75.91,412.9,74.98z M412.41,178.41
		c-76.24,76.86-151.72,152.95-227.21,229.05c8.95,9.02,32.74,19.76,52.48,22.9c95.55,15.2,213.64-51.65,201.27-186.71
		C436.79,219.97,428.91,197.96,412.41,178.41z"/>
	<path class="st0" d="M45.85,372.98C33.28,358.84,24,343.61,17.19,326.94C-30.1,211.37,23.49,76.86,137.47,24.87
		C193.24-0.57,250.84-7.46,310.45,8.7c25.35,6.87,48.35,18.59,66.52,33.65C361.87,58.68,347,75.01,331.68,90.9
		c-1.44,1.49-6.14,1.13-8.67,0.07c-26.99-11.37-54.78-19.18-84.29-19.27c-54.68-0.18-97.04,24.79-130.96,65.69
		C66.3,187.34,63.03,242.99,85,301.9c2.51,6.72,5.81,13.15,8.23,19.9c0.76,2.13,0.85,5.91-0.46,7.16
		C77.49,343.67,61.88,358.04,45.85,372.98z"/>
</g>
<path class="st0" d="M1358.92,361.24c0-56.54,0-112.04,0-168.25c3.09-0.2,5.74-0.51,8.4-0.52c55.61-0.03,111.22-0.09,166.84,0.02
	c20.79,0.04,37.04,8.87,47.1,27.16c9.73,17.69,8.47,35.46-1.64,52.93c-1.35,2.34-1.25,6.84,0.12,9.22
	c10.08,17.5,11.26,35.26,1.38,52.9c-10,17.86-25.84,26.87-46.38,26.9c-55.89,0.09-111.78,0.03-167.67,0.01
	C1364.63,361.62,1362.18,361.4,1358.92,361.24z M1402.16,230.65c0,31.37,0,61.64,0,91.54c0.78,0.52,1,0.8,1.22,0.8
	c43.7,0.14,87.4,0.41,131.09,0.04c3.25-0.03,8.15-4.14,9.39-7.43c4.47-11.95-1.27-19.46-13.98-19.49
	c-31.54-0.06-63.08-0.03-94.63-0.03c-3.21,0-6.43,0-9.61,0c0-13.36,0-25.57,0-38.2c4.15,0,7.45,0,10.76,0
	c31.82,0,63.64,0.08,95.46-0.06c9.89-0.04,13.08-3.79,12.88-13.99c-0.18-9.51-3.6-13.08-13.07-13.12
	c-22.41-0.09-44.82-0.04-67.23-0.04C1443.98,230.65,1423.52,230.65,1402.16,230.65z"/>
<path class="st0" d="M816.57,192.86c0,12.84,0,24.68,0,37.79c-3.2,0-6.11,0-9.03,0c-51.74,0-103.48,0-155.22,0.01
	c-15.85,0.01-21.4,5.6-21.41,21.47c-0.01,17.71-0.09,35.42,0.03,53.12c0.08,11.22,6.26,18.04,17.14,18.09
	c40.67,0.18,81.35,0.05,122.02,0.02c0.79,0,1.58-0.3,3.02-0.59c0-8.37,0-16.78,0-26.41c-39.16,0-78.49,0-118.3,0
	c0-13.24,0-25.27,0-37.93c53.8,0,107.34,0,161.47,0c0,34.08,0,68.15,0,102.75c-3.09,0.16-5.78,0.42-8.48,0.42
	c-55.06,0.04-110.12,0.13-165.18,0.03c-32.91-0.06-54.58-21.68-54.82-54.55c-0.15-20.47-0.17-40.95,0.04-61.42
	c0.33-31.01,22.73-53.14,53.77-53.18c55.61-0.07,111.23-0.02,166.84,0C810.89,192.48,813.32,192.7,816.57,192.86z"/>
<path class="st0" d="M1215.56,361.61c-20.18,0-40.36,0.11-60.55-0.03c-31.09-0.21-53.15-22.4-53.25-53.47
	c-0.07-21.29-0.18-42.58,0.05-63.86c0.32-28.98,22.66-51.53,51.67-51.73c42.02-0.28,84.05-0.25,126.07,0.01
	c27.84,0.18,50.56,22.52,51.24,50.6c0.55,22.66,0.6,45.35-0.02,68c-0.78,28.25-23.09,49.94-51.35,50.4
	C1258.14,361.89,1236.85,361.61,1215.56,361.61z M1216.05,323.42c17.97,0,35.95,0.17,53.92-0.06c11.33-0.15,17.6-6.33,17.74-17.49
	c0.23-19.08,0.27-38.16,0.01-57.23c-0.16-11.63-6.64-17.89-18.26-17.93c-35.39-0.12-70.78-0.1-106.18,0.01
	c-12.15,0.04-18.39,6.33-18.47,18.42c-0.12,18.52-0.14,37.05-0.04,55.58c0.07,12.51,6.31,18.63,19.02,18.71
	C1181.21,323.52,1198.63,323.43,1216.05,323.42z"/>
<path class="st0" d="M1854.07,361.61c-18.24,0-35.06,0.19-51.87-0.21c-2.44-0.06-5.35-2.47-7.13-4.57
	c-28.9-34.21-57.75-68.46-86.4-102.88c-15.77-18.95-24.08-22.12-50-17.21c0,41.14,0,82.47,0,124.34c-14.59,0-28.26,0-42.54,0
	c0-56,0-111.7,0-168.65c5.84,0,11.54,0,17.23,0c16.32,0,32.64-0.25,48.95,0.06c19.77,0.37,36.94,7.48,49.8,22.64
	c40.04,47.24,79.74,94.77,119.55,142.2C1852.33,358.15,1852.72,359.19,1854.07,361.61z"/>
<path class="st0" d="M1073.42,323.45c0,13.42,0,25.22,0,38.19c-3.38,0-6.31,0-9.24,0c-54.74,0-109.49,0.04-164.23-0.02
	c-33.23-0.03-55.09-21.75-55.21-55c-0.13-37.59-0.03-75.17-0.03-113.46c14.29,0,28.16,0,43.14,0c0,3.7,0,7.2,0,10.7
	c-0.01,32.9-0.05,65.8-0.01,98.7c0.01,15.26,5.57,20.81,21.08,20.83c51.43,0.07,102.85,0.04,154.28,0.06
	C1066.42,323.45,1069.65,323.45,1073.42,323.45z"/>
<path class="st0" d="M2093.33,323.46c0,13.15,0,24.96,0,38.17c-3.17,0-6.08,0-8.98,0c-54.76,0.01-109.51,0.04-164.27,0.02
	c-33.67-0.01-55.71-21.9-55.77-55.39c-0.06-34.84-0.01-69.69-0.01-104.54c0-2.7,0-5.41,0-8.68c14.56,0,28.23,0,42.82,0
	c0.14,2.93,0.41,5.86,0.41,8.78c0.04,33.19,0.04,66.37,0.05,99.56c0,17.06,4.97,22.04,22.35,22.06
	c51.16,0.04,102.32,0.02,153.48,0.02C2086.4,323.46,2089.39,323.46,2093.33,323.46z"/>
<path class="st0" d="M1690.84,423.25c-5.33,7.26-10.65,14.53-17.74,24.19c-3.82-9.77-6.73-17.21-10.57-27.03
	c-2.06,10.97-3.45,19.65-5.46,28.19c-0.47,2-3.03,3.51-4.62,5.25c-0.5-2.09-1.69-4.29-1.39-6.25c1.71-11.19,3.59-22.36,5.84-33.44
	c0.51-2.51,2.75-4.67,4.19-6.99c1.59,1.96,3.74,3.69,4.66,5.93c2.95,7.13,5.44,14.44,8.36,22.33c10.33-8.18,13.13-23.07,25.1-29
	c0.9,0.49,1.81,0.97,2.71,1.46c-2.94,14.99-5.84,29.99-9,44.94c-0.12,0.59-2.79,0.64-5.71,1.23c1.86-10.83,3.55-20.66,5.24-30.49
	C1691.93,423.46,1691.39,423.36,1690.84,423.25z"/>
<path class="st0" d="M1541.46,454.42c-1.73-1.95-4.44-3.64-5.03-5.89c-3.81-14.47-3.66-14.51-19.33-12.87
	c-1.01,4.58-1.81,9.45-3.26,14.13c-0.5,1.63-2.59,2.77-3.95,4.13c-0.77-1.74-2.42-3.61-2.17-5.19c1.91-12.28,3.96-24.56,6.58-36.7
	c0.43-2.01,3.69-4.48,5.93-4.81c4.87-0.74,10.07-0.98,14.86-0.02c4.48,0.9,11.5,2.88,12.21,5.69c1.23,4.86-1.32,10.8-2.83,16.14
	c-0.44,1.53-2.78,2.51-4.28,3.77c1.26,6.6,2.53,13.23,3.8,19.86C1543.15,453.24,1542.3,453.83,1541.46,454.42z M1517.98,429.26
	c5.86,0,10.78,0.38,15.61-0.09c6.71-0.65,8.32-5.95,8.21-11.42c-0.11-5.81-5.06-4.62-8.74-4.73c-4.04-0.12-8.08-0.03-12.47-0.03
	C1519.67,418.73,1518.9,423.51,1517.98,429.26z"/>
<path class="st0" d="M1755.99,406.55c14.69,0,19.36,5.49,17.02,20.08c-0.44,2.72-1.22,5.39-1.56,8.11
	c-2.43,19.63-15.85,21.47-29.95,19.09c-6.86-1.16-10.54-5.99-10.25-12.99c0.22-5.21,1.08-10.42,2.03-15.56
	C1735.81,411.62,1742.06,406.56,1755.99,406.55z M1750.32,450.03c4.03-2.33,10.31-3.78,11.63-7.17c2.91-7.47,3.61-15.89,4.51-24
	c0.19-1.71-2.25-4.57-4.16-5.5c-9.17-4.5-19.42,0.5-21.98,10.49c-0.95,3.73-1.63,7.55-2.17,11.37
	C1736.71,445.36,1739.32,448.37,1750.32,450.03z"/>
<path class="st0" d="M2014.74,441.69c3.16-12.37,5.94-23.38,8.9-34.34c0.07-0.27,2-0.03,4.49-0.03c-2.63,15-5.14,29.53-7.84,44.03
	c-0.17,0.92-2.16,2.4-2.76,2.18c-1.84-0.7-4.1-1.71-4.97-3.28c-4.14-7.48-7.85-15.19-11.77-22.8c-1.19-2.32-2.54-4.56-4.71-8.44
	c-2.1,11.17-3.63,20.37-5.71,29.43c-0.46,1.99-2.91,3.53-4.45,5.27c-0.56-2.13-1.86-4.38-1.55-6.38c1.82-11.72,3.91-23.4,6.18-35.04
	c0.36-1.82,2.07-3.39,3.15-5.07c1.85,1.32,4.44,2.24,5.42,4.04C2004.37,420.93,2009.21,430.82,2014.74,441.69z"/>
<path class="st0" d="M1596.02,454.46c-14.65,0.04-19.3-5.31-17.26-20.02c0.42-3,1.15-5.96,1.63-8.95
	c3.02-18.69,15.45-21.27,31.45-17.88c6.4,1.35,9.66,6.59,8.85,13.15c-0.91,7.36-2.12,14.78-4.22,21.87
	C1614,450.98,1607.26,454.42,1596.02,454.46z M1596.69,449.76c4.01-1.93,10.41-2.94,11.56-5.96c3.04-8,4.09-16.82,5.24-25.41
	c0.2-1.52-2.57-4.26-4.54-5.13c-9.78-4.27-19.3,0.69-21.6,10.97c-0.9,4.03-1.74,8.09-2.21,12.19
	C1584.07,445.64,1586.63,448.35,1596.69,449.76z"/>
<path class="st0" d="M1936.76,406.56c14.07,0.12,19.11,6.09,16.66,19.72c-0.44,2.44-0.92,4.88-1.31,7.33
	c-2.69,16.99-12.16,23.71-29.15,20.65c-7.46-1.34-11.95-6.37-11.35-13.84c0.52-6.58,1.42-13.22,3.11-19.58
	C1917.5,410.36,1924.03,406.46,1936.76,406.56z M1931.41,450.29c4.09-2.98,10.04-5.12,11.83-9.13c2.82-6.3,3.31-13.83,3.78-20.9
	c0.15-2.24-2.36-5.84-4.56-6.87c-9.88-4.62-19.57,0.64-21.98,11.45c-0.78,3.49-1.36,7.03-1.84,10.58
	C1917.26,445.67,1919.7,448.42,1931.41,450.29z"/>
<path class="st0" d="M2080.4,406.55c6.55-0.06,13.13,0.02,15.03,8.18c0.34,1.47-0.91,3.31-1.43,4.98c-1.54-0.74-3.54-1.09-4.52-2.28
	c-4.22-5.14-13.89-7.2-18.63-3.01c-1.95,1.72-3.19,5.17-3.17,7.81c0.01,1.44,3.16,3.38,5.24,4.14c2.8,1.03,6.27,0.47,8.85,1.78
	c4.09,2.08,10.81,5.15,10.82,7.81c0.01,5.34-2.55,13.95-6.24,15.33c-7.14,2.67-15.83,1.71-23.81,1.21
	c-1.97-0.12-4.21-4.05-5.32-6.66c-0.64-1.5,0.72-3.85,1.18-5.82c1.7,1.19,3.99,2,4.98,3.62c3.45,5.67,16.65,7,20.96,1.83
	c4.24-5.07,2.58-10.1-3.93-11.67c-2.14-0.51-4.38-0.55-6.54-0.97c-6.56-1.29-13.75-2.02-13.1-11.47c0.65-9.39,5.9-14.33,15.51-14.8
	C2077.64,406.49,2079.02,406.55,2080.4,406.55z"/>
<path class="st0" d="M1448.45,437.16c-3.92,15.59-3.92,15.59-9.84,16.36c2.59-14.9,5.04-29.38,7.76-43.81
	c0.2-1.05,2.36-2.46,3.62-2.47c7.41-0.11,14.87-0.29,22.23,0.41c5.81,0.55,8.35,4.64,8.03,10.52c-0.62,11.48-4.9,17.97-13.5,18.88
	C1460.81,437.67,1454.74,437.16,1448.45,437.16z M1449.27,431.47c5.35,0,9.98,0.05,14.6-0.01c8.67-0.12,9.16-6.95,9.59-12.84
	c0.5-7.04-5.4-5.31-9.5-5.61c-2.19-0.16-4.66-0.65-6.54,0.13c-2.28,0.95-5.13,2.7-5.86,4.76
	C1450.14,421.9,1450.04,426.36,1449.27,431.47z"/>
<path class="st0" d="M1812.4,452.91c2.24-12.92,4.47-25.85,6.81-39.35c-4.93-0.41-9.43-0.79-13.93-1.17
	c-0.26-0.67-0.53-1.34-0.79-2.02c1.89-1.12,3.74-3.14,5.66-3.21c8.83-0.33,17.68-0.24,26.51,0.01c1.46,0.04,2.87,1.63,4.3,2.5
	c-1.54,1.09-2.97,2.86-4.63,3.12c-3.19,0.5-6.51,0.15-10.24,0.15c-2.25,12.36-4.21,24.02-6.64,35.59c-0.46,2.19-2.78,3.99-4.24,5.96
	C1814.27,453.97,1813.33,453.44,1812.4,452.91z"/>
<path class="st0" d="M1881.87,406.79c-3.18,16.51-5.98,31.32-9.06,46.07c-0.12,0.58-2.8,0.62-6.26,1.29
	c3.15-16.15,6.01-31.11,9.15-46.02C1875.82,407.55,1878.47,407.49,1881.87,406.79z"/>
</svg>
