<?xml version="1.0" encoding="utf-8"?>
<!-- Generator: Adobe Illustrator 25.4.1, SVG Export Plug-In . SVG Version: 6.00 Build 0)  -->
<svg version="1.1" xmlns="http://www.w3.org/2000/svg" xmlns:xlink="http://www.w3.org/1999/xlink" x="0px" y="0px"
	 viewBox="0 0 1538.25 921.05" style="enable-background:new 0 0 1538.25 921.05;" xml:space="preserve">
<style type="text/css">
	.st0{fill:#FFFFFF;}
</style>
<g id="Capa_1">
	<path class="st0" d="M1501.79,917.94c-2.32-2.07-3.48-4.86-3.48-8.38c0-1.08,0.09-2.07,0.27-2.97h6.29
		c-0.14,0.67-0.2,1.33-0.2,1.96c0,2.07,0.62,3.72,1.86,4.93c1.24,1.22,2.92,1.82,5.03,1.82h7.43c2.52,0,4.59-0.52,6.22-1.55
		c1.62-1.04,2.59-2.46,2.9-4.26l0.68-3.72c0.05-0.18,0.07-0.45,0.07-0.81c0-1.12-0.45-2.09-1.35-2.9c-0.9-0.81-2.16-1.35-3.78-1.62
		l-11.83-2.1c-3.06-0.49-5.44-1.54-7.13-3.14c-1.69-1.6-2.53-3.55-2.53-5.85c0-0.59,0.07-1.17,0.2-1.76l0.67-3.72
		c0.63-3.56,2.29-6.32,4.97-8.28c2.68-1.96,6.09-2.94,10.24-2.94h7.64c3.78,0,6.78,0.96,8.99,2.87c2.21,1.92,3.31,4.49,3.31,7.74
		c0,0.5-0.09,1.37-0.27,2.64h-6.35c0.09-0.4,0.13-0.99,0.13-1.76c0-1.76-0.53-3.15-1.59-4.19c-1.06-1.04-2.51-1.56-4.36-1.56h-7.63
		c-2.34,0-4.29,0.51-5.85,1.52c-1.55,1.01-2.51,2.4-2.87,4.16l-0.54,3.11c-0.05,0.18-0.07,0.45-0.07,0.81
		c0,1.17,0.44,2.17,1.32,3.01c0.88,0.84,2.11,1.39,3.68,1.66l11.83,2.09c3.06,0.59,5.46,1.67,7.2,3.24c1.73,1.58,2.6,3.47,2.6,5.68
		c0,0.36-0.04,0.9-0.13,1.62l-0.81,4.39c-0.63,3.65-2.28,6.45-4.93,8.41c-2.66,1.96-6.15,2.94-10.47,2.94h-7.77
		C1507.3,921.05,1504.11,920.01,1501.79,917.94"/>
</g>
<g id="Capa_11">
	<polygon class="st0" points="1431.76,873.21 1437.36,873.21 1456.22,910.24 1462.71,873.21 1468.99,873.21 1460.68,920.51 
		1455.07,920.51 1436.22,883.68 1429.73,920.51 1423.44,920.51 	"/>
</g>
<g id="Capa_12">
	<path class="st0" d="M1354.02,917.34c-2.64-2.48-3.95-5.81-3.95-10c0-0.99,0.11-2.21,0.34-3.65l2.43-13.65
		c0.95-5.5,3.05-9.76,6.32-12.8c3.27-3.04,7.4-4.56,12.4-4.56h7.16c4.59,0,8.21,1.22,10.84,3.65c2.64,2.43,3.95,5.74,3.95,9.93
		c0,1.4-0.11,2.66-0.34,3.78l-2.43,13.65c-0.95,5.5-3.06,9.76-6.35,12.8c-3.29,3.04-7.46,4.56-12.5,4.56h-7.16
		C1360.22,921.05,1356.65,919.81,1354.02,917.34 M1372.03,915.31c3.2,0,5.89-1.04,8.07-3.11c2.18-2.07,3.59-4.96,4.22-8.65
		l2.43-13.38c0.18-0.9,0.27-1.85,0.27-2.84c0-2.75-0.75-4.92-2.26-6.52c-1.51-1.6-3.59-2.4-6.25-2.4h-6.96
		c-3.2,0-5.88,1.04-8.04,3.11c-2.16,2.07-3.58,4.95-4.26,8.65l-2.36,13.38c-0.18,0.9-0.27,1.87-0.27,2.9c0,2.75,0.74,4.91,2.23,6.49
		c1.49,1.58,3.53,2.37,6.15,2.37H1372.03z"/>
</g>
<g id="Capa_13">
	<polygon class="st0" points="1312.97,873.21 1319.39,873.21 1311.08,920.51 1304.66,920.51 	"/>
</g>
<g id="Capa_14">
	<polygon class="st0" points="1256.28,878.82 1241.27,878.82 1242.22,873.21 1278.64,873.21 1277.7,878.82 1262.7,878.82 
		1255.33,920.51 1248.91,920.51 	"/>
</g>
<g id="Capa_15">
	<path class="st0" d="M1170.02,917.34c-2.64-2.48-3.95-5.81-3.95-10c0-0.99,0.11-2.21,0.34-3.65l2.43-13.65
		c0.95-5.5,3.05-9.76,6.32-12.8c3.27-3.04,7.4-4.56,12.4-4.56h7.16c4.59,0,8.21,1.22,10.84,3.65c2.64,2.43,3.95,5.74,3.95,9.93
		c0,1.4-0.11,2.66-0.34,3.78l-2.43,13.65c-0.95,5.5-3.06,9.76-6.35,12.8c-3.29,3.04-7.46,4.56-12.5,4.56h-7.16
		C1176.22,921.05,1172.65,919.81,1170.02,917.34 M1188.03,915.31c3.2,0,5.89-1.04,8.07-3.11c2.18-2.07,3.59-4.96,4.22-8.65
		l2.43-13.38c0.18-0.9,0.27-1.85,0.27-2.84c0-2.75-0.75-4.92-2.26-6.52c-1.51-1.6-3.59-2.4-6.25-2.4h-6.96
		c-3.2,0-5.88,1.04-8.04,3.11c-2.16,2.07-3.58,4.95-4.26,8.65l-2.36,13.38c-0.18,0.9-0.27,1.87-0.27,2.9c0,2.75,0.74,4.91,2.23,6.49
		c1.49,1.58,3.53,2.37,6.15,2.37H1188.03z"/>
</g>
<g id="Capa_16">
	<path class="st0" d="M1091.74,873.21h5.54l11.08,30.34l21.35-30.34h6.35l-8.31,47.3h-6.28l6.22-35.27l-16.56,23.25
		c-0.72,0.99-1.34,1.69-1.86,2.09c-0.52,0.41-1.12,0.61-1.79,0.61h-1.82l-9.67-25.95l-6.22,35.27h-6.35L1091.74,873.21z"/>
</g>
<g id="Capa_17">
	<path class="st0" d="M1014,917.34c-2.64-2.48-3.95-5.81-3.95-10c0-0.99,0.11-2.21,0.34-3.65l2.43-13.65
		c0.95-5.5,3.05-9.76,6.32-12.8c3.27-3.04,7.4-4.56,12.4-4.56h7.16c4.59,0,8.21,1.22,10.84,3.65c2.64,2.43,3.95,5.74,3.95,9.93
		c0,1.4-0.11,2.66-0.34,3.78l-2.43,13.65c-0.95,5.5-3.06,9.76-6.35,12.8c-3.29,3.04-7.46,4.56-12.5,4.56h-7.16
		C1020.2,921.05,1016.63,919.81,1014,917.34 M1032.01,915.31c3.2,0,5.89-1.04,8.07-3.11c2.18-2.07,3.59-4.96,4.22-8.65l2.43-13.38
		c0.18-0.9,0.27-1.85,0.27-2.84c0-2.75-0.75-4.92-2.26-6.52c-1.51-1.6-3.59-2.4-6.25-2.4h-6.96c-3.2,0-5.88,1.04-8.04,3.11
		c-2.16,2.07-3.58,4.95-4.26,8.65l-2.36,13.38c-0.18,0.9-0.27,1.87-0.27,2.9c0,2.75,0.74,4.91,2.23,6.49
		c1.49,1.58,3.53,2.37,6.15,2.37H1032.01z"/>
</g>
<g id="Capa_18">
	<path class="st0" d="M945.78,873.21h22.91c3.51,0,6.27,0.82,8.28,2.47c2,1.64,3.01,3.86,3.01,6.66c0,0.68-0.07,1.35-0.2,2.03
		l-0.88,4.87c-0.4,2.43-1.45,4.53-3.14,6.28c-1.69,1.76-3.97,3.04-6.86,3.85v0.07c2.43,1.53,3.89,4.42,4.39,8.65l1.55,12.43h-6.62
		l-1.56-12.16c-0.27-2.12-0.98-3.78-2.13-5c-1.15-1.21-2.6-1.82-4.36-1.82h-12.91l-3.38,18.99h-6.42L945.78,873.21z M963.76,895.84
		c2.25,0,4.19-0.61,5.81-1.82c1.62-1.21,2.59-2.81,2.91-4.8l0.81-4.93c0.04-0.23,0.07-0.56,0.07-1.01c0-1.35-0.45-2.42-1.35-3.21
		c-0.9-0.79-2.12-1.18-3.65-1.18h-17.1l-2.97,16.96H963.76z"/>
</g>
<g id="Capa_2">
	<path class="st0" d="M875.98,873.21h22.71c3.6,0,6.43,0.85,8.48,2.53c2.05,1.69,3.07,3.95,3.07,6.79c0,0.68-0.07,1.4-0.2,2.16
		l-1.22,6.76c-0.72,3.83-2.35,6.82-4.9,8.95c-2.55,2.14-5.78,3.21-9.7,3.21h-17.1l-3.04,16.89h-6.42L875.98,873.21z M894.3,897.94
		c2.12,0,3.9-0.59,5.34-1.79c1.44-1.19,2.34-2.84,2.7-4.97l1.21-6.42c0.09-0.63,0.13-1.06,0.13-1.28c0-1.4-0.47-2.51-1.42-3.34
		c-0.95-0.84-2.23-1.25-3.85-1.25h-16.96l-3.38,19.05H894.3z"/>
</g>
<g id="Capa_3">
	<path class="st0" d="M262.06,654.36h43.67v116.65c0,9.19,7.54,16.73,16.73,16.73h173.09v38.66H314.49
		c-8.26,0-16.35-2.01-23.69-5.79c-1.7-0.87-3.34-1.83-4.94-2.88c-14.81-9.76-23.8-26.25-23.8-44V654.36z"/>
</g>
<g id="Capa_4">
	<path class="st0" d="M1048.26,826.4V698.06v-43.7h43.67h25.74c20.29,0.58,37.91,9.13,51.08,24.82l21.24,25.32l102.29,121.9h-57
		l-71.75-85.51l-28.23-33.64c-4.85-5.78-10.41-8.7-17.62-9.18h-25.74V826.4H1048.26z"/>
</g>
<g id="Capa_5">
	<path class="st0" d="M1019.69,773.72c0,28.99-23.69,52.68-52.67,52.68l-180.82,0V654.36h180.82c28.98,0,52.67,23.69,52.67,52.67
		c0,12.26-4.27,23.99-11.96,33.35C1015.41,749.74,1019.69,761.46,1019.69,773.72 M965.57,721.05c5.73,0,10.44-4.71,10.44-10.44
		v-7.15c0-5.73-4.71-10.44-10.44-10.44H829.86v94.72h135.71c5.73,0,10.44-4.71,10.44-10.44v-7.15c0-5.73-4.71-10.44-10.44-10.44
		H854.04v-38.66H965.57z"/>
</g>
<g id="Capa_6">
	<path class="st0" d="M524.12,707.03c0-28.98,23.69-52.67,52.68-52.67h128.15c28.98,0,52.67,23.69,52.67,52.67v66.69
		c0,28.99-23.69,52.68-52.67,52.68H576.8c-28.99,0-52.68-23.69-52.68-52.68V707.03z M713.95,771.01v-61.26
		c0-9.19-7.54-16.73-16.73-16.73H584.53c-9.19,0-16.73,7.54-16.73,16.73v61.26c0,9.19,7.54,16.73,16.73,16.73h112.69
		C706.41,787.73,713.95,780.2,713.95,771.01"/>
</g>
<g id="Capa_7">
	<path class="st0" d="M1302.25,654.36h43.67v116.65c0,9.19,7.54,16.73,16.73,16.73h173.09v38.66h-181.06
		c-8.26,0-16.35-2.01-23.69-5.79c-1.7-0.87-3.34-1.83-4.94-2.88c-14.81-9.76-23.8-26.25-23.8-44V654.36z"/>
</g>
<g id="Capa_8">
	<path class="st0" d="M189.82,759.71H67.84v-38.66h165.65v105.35H52.43C23.51,826.39,0,802.58,0,773.72v-66.69
		c0-7.66,1.67-15.2,4.9-22.13c7.36-15.78,22.13-27.06,39.33-29.86c2.79-0.46,5.61-0.68,8.45-0.68h180.82v38.66H60.4
		c-9.19,0-16.73,7.54-16.73,16.73v61.25c0,9.19,7.54,16.73,16.73,16.73h129.42V759.71z"/>
</g>
<g id="Capa_9">
	<path class="st0" d="M942.73,76.1c100.04,69.28,129.91,210.16,70.94,312.34c-63.03,109.2-215.88,174.13-366.42,78.6
		c-29.39,31.17-59.71,63.32-93.72,99.39v-93.51C685.17,338.71,813.54,207.83,942.73,76.1 M942.67,181.39
		c-77.92,77.73-155.93,155.54-233.83,233.24c57.03,45.23,159.08,31.3,218.23-30.73C978.91,329.51,985.92,231.39,942.67,181.39"/>
</g>
<g id="Capa_10">
	<path class="st0" d="M909.2,45.34c-17.9,17.32-34.63,33.51-51.65,49.98c-76.54-35.1-150.47-32.21-212.28,29.5
		c-60.24,60.14-63.21,131.97-25.87,208.11c-16.97,15.82-33.9,31.61-50.75,47.3c-64.47-74.74-65.31-210.03,17.54-299.65
		C669.69-9.72,820.66-27.91,909.2,45.34"/>
</g>
</svg>
